<svg xmlns="http://www.w3.org/2000/svg" version="1.1" viewBox="0 0 2048 2048" style="fill: rgb(0, 0, 0);">
 <g transform="translate(-256.44 1567.1)">
  <g transform="translate(0 69.536)">
   <g id="__id81_s2smg0yvqk"><path color="#000000" d="m1423.7-1367.1c-223.89 0-218.19 238.13-415.17 243.09h-601.94c-83.196 0-150.17 66.978-150.17 150.17v965.49c0 83.196 66.978 150.17 150.17 150.17h1747.7c83.196 0 150.17-66.978 150.17-150.17v-965.49c0-83.196-66.978-150.17-150.17-150.17h-170.51c-196.98-4.9645-191.28-243.09-415.17-243.09h-144.86zm-891.35 154.55c-39.299 0-71.02 30.286-71.02 68.204h299.41c0-37.918-31.408-68.204-70.707-68.204h-157.68z" style="fill: rgb(183, 166, 82);"></path></g>
   <path color="#000000" d="m385.88 428.59c0 19.805-16.055 35.86-35.86 35.86s-35.86-16.055-35.86-35.86 16.055-35.86 35.86-35.86 35.86 16.055 35.86 35.86z" stroke="#fff" stroke-linecap="round" stroke-linejoin="round" stroke-width="3.9011" transform="matrix(12.832 0 0 12.832 -2995.2 -5982.9)" style="fill: none;"></path>
   <g id="__id82_s2smg0yvqk"><path color="#000000" d="m360.12 393.49c0 2.371-1.9221 4.2932-4.2932 4.2932s-4.2932-1.9221-4.2932-4.2932 1.9221-4.2932 4.2932-4.2932 4.2932 1.9221 4.2932 4.2932z" transform="matrix(22.957 0 0 22.957 -6952.4 -9762.3)" style="fill: rgb(6, 24, 43);"></path></g>
   <g id="__id83_s2smg0yvqk"><path color="#000000" d="m1902.3-543.06c-22.708 246.98-219.16 443.17-466.17 465.85 10.755 0.79292 21.579 1.2514 32.538 1.2514 240.61 0 435.19-194.27 435.19-434.88 0-10.805-0.7929-21.619-1.5643-32.225z" style="fill: rgb(6, 24, 43);"></path></g>
   <g id="__id84_s2smg0yvqk"><path color="#000000" d="m360.12 393.49c0 2.371-1.9221 4.2932-4.2932 4.2932s-4.2932-1.9221-4.2932-4.2932 1.9221-4.2932 4.2932-4.2932 4.2932 1.9221 4.2932 4.2932z" transform="matrix(8.8047 0 0 8.8047 -1734.6 -4029.8)" style="fill: rgb(6, 24, 43);"></path></g>
   <g id="__id85_s2smg0yvqk"><rect color="#000000" height="144.11" ry="72.057" width="258.55" x="1366.9" y="-1317.6" style="fill: rgb(6, 24, 43);"></rect></g>
  </g>
 </g>
</svg>
