<svg xmlns="http://www.w3.org/2000/svg" xmlns:xlink="http://www.w3.org/1999/xlink" version="1.1" x="0px" y="0px" viewBox="0 0 500.001 627.226" enable-background="new 0 0 500.001 627.226" xml:space="preserve" style="fill: rgb(0, 0, 0);">
<g id="__id80_sb3d0hxgoe">
	<path d="M479.091,589.021V417.228c0-2.449-0.656-4.731-2.671-6.1L343.479,319.89v-43.066   c0-4.071-6.071-5.596-10.165-5.596h-27.984v-55.094h13.216c4.076,0,7.976-5.434,7.976-9.51v-14.773c0-2.347-1.22-4.551-3.105-5.951   l-56.226-41.384V80.522h27.226c4.075,0,6.673-3.114,6.673-7.195V50.145c0-4.08-1.396-7.777-5.472-7.777h-28.427V7.125   c0-4.089-3.679-7.125-7.764-7.125h-17.915c-4.089,0-8.225,2.07-8.225,7.125v35.243H208.86c-7.73,0-9.625,4.662-9.625,8.733v18.82   c0,4.08,1.895,10.601,8.899,10.601h25.151v63.994L177.074,185.9c-1.895,1.4-3.115,3.604-3.115,5.951v14.773   c0,4.076,0.106,9.51,4.182,9.51h21.246v55.094h-36.019c-4.076,0-2.117,1.524-2.117,5.596v43.066L26.19,411.128   c-2.02,1.368-4.801,3.65-4.801,6.1v171.793c-12.708,4.381-20.636,21.302-21.348,30.876c-0.144,2.033,0.037,3.752,1.437,5.25   c1.391,1.516,2.833,2.079,4.884,2.079h177.384c-0.476-1.201-0.776-2.486-0.776-3.854V491.271c0-26.265,21.386-47.649,47.669-47.649   c0.31,0,0.642,0.019,0.961,0.055c5.453,0.425,9.731,4.991,9.731,10.544v169.15c0,1.367-0.305,2.652-0.776,3.854h18.622   c-0.472-1.201-0.776-2.486-0.776-3.854v-169.15c0-2.809,1.127-5.508,3.114-7.504c1.987-1.978,4.677-3.077,7.485-3.077h0.028   c26.2,0.073,47.511,21.44,47.511,47.631v132.101c0,1.367-0.295,2.652-0.775,3.854h176.025c2.135,0,4.149-0.619,5.563-2.228   c1.404-1.59,2.893-3.576,2.615-5.684C498.729,609.889,496.049,593.373,479.091,589.021" style="fill: rgb(183, 166, 82);"></path>
</g>
</svg>
