<svg xmlns="http://www.w3.org/2000/svg" version="1.1" viewBox="0 0 384 425.2" style="fill: rgb(0, 0, 0);">
 <g id="__id72_sxeqghe4js">
  <g id="__id73_sxeqghe4js"><path d="m78.133 386.34h230.85v-230.86h-230.85z" style="fill: rgb(183, 166, 82);"></path></g>
  <g id="__id74_sxeqghe4js"><path d="m78.133 294.39h230.85v-46.96h-230.85z" style="fill: rgb(6, 24, 43);"></path></g>
  <g id="__id75_sxeqghe4js"><path d="m316.86 177.6v-33.99c0-5.66-4.58-10.25-10.24-10.25h-226.13c-5.646 0-10.232 4.59-10.232 10.25v33.99h246.6" style="fill: rgb(183, 166, 82);"></path></g>
  <g id="__id76_sxeqghe4js"><path d="m170.08 177.6h46.96v-44.24h-46.96z" style="fill: rgb(6, 24, 43);"></path></g>
  <g id="__id77_sxeqghe4js"><path d="m170.08 386.34h46.96v-208.74h-46.96z" style="fill: rgb(6, 24, 43);"></path></g>
  <g id="__id78_sxeqghe4js"><path d="m201.29 129.76c-7.9-11.98 29.56-50.612 41.55-58.506 11.98-7.902 28.1-4.586 36 7.394 7.89 11.981 4.58 28.102-7.4 36.002s-62.25 27.09-70.15 15.11zm110.3-72.698c-12.3-18.66-37.39-23.82-56.06-11.515-18.66 12.297-76.99 72.433-64.69 91.103 12.3 18.66 90.57-11.23 109.23-23.53s23.82-37.397 11.52-56.058" style="fill: rgb(6, 24, 43);"></path></g>
  <g id="__id79_sxeqghe4js"><path d="m112.55 114.65c-11.97-7.9-15.288-24.021-7.39-36.002 7.9-11.98 24.02-15.296 36-7.394 11.98 7.894 49.45 46.526 41.55 58.506-7.91 11.98-58.16-7.21-70.16-15.11zm-28.624-1.53c18.664 12.3 96.934 42.19 109.23 23.53 12.3-18.67-46.04-78.806-64.69-91.103-18.67-12.305-43.763-7.145-56.064 11.515-12.297 18.661-7.14 43.758 11.52 56.058" style="fill: rgb(6, 24, 43);"></path></g>
 </g>
</svg>
